<svg id="visual" viewBox="0 0 900 600" width="900" height="600" xmlns="http://www.w3.org/2000/svg" xmlns:xlink="http://www.w3.org/1999/xlink" version="1.1"><path d="M0 37L82 37L82 49L164 49L164 31L245 31L245 55L327 55L327 61L409 61L409 61L491 61L491 31L573 31L573 43L655 43L655 43L736 43L736 67L818 67L818 55L900 55L900 31L900 0L900 0L818 0L818 0L736 0L736 0L655 0L655 0L573 0L573 0L491 0L491 0L409 0L409 0L327 0L327 0L245 0L245 0L164 0L164 0L82 0L82 0L0 0Z" fill="#9900ff"></path><path d="M0 73L82 73L82 85L164 85L164 67L245 67L245 133L327 133L327 175L409 175L409 139L491 139L491 127L573 127L573 127L655 127L655 79L736 79L736 133L818 133L818 103L900 103L900 91L900 29L900 53L818 53L818 65L736 65L736 41L655 41L655 41L573 41L573 29L491 29L491 59L409 59L409 59L327 59L327 53L245 53L245 29L164 29L164 47L82 47L82 35L0 35Z" fill="#8e00ec"></path><path d="M0 259L82 259L82 331L164 331L164 283L245 283L245 265L327 265L327 259L409 259L409 277L491 277L491 223L573 223L573 223L655 223L655 187L736 187L736 253L818 253L818 211L900 211L900 229L900 89L900 101L818 101L818 131L736 131L736 77L655 77L655 125L573 125L573 125L491 125L491 137L409 137L409 173L327 173L327 131L245 131L245 65L164 65L164 83L82 83L82 71L0 71Z" fill="#8200d9"></path><path d="M0 307L82 307L82 373L164 373L164 349L245 349L245 325L327 325L327 289L409 289L409 355L491 355L491 289L573 289L573 295L655 295L655 223L736 223L736 325L818 325L818 289L900 289L900 283L900 227L900 209L818 209L818 251L736 251L736 185L655 185L655 221L573 221L573 221L491 221L491 275L409 275L409 257L327 257L327 263L245 263L245 281L164 281L164 329L82 329L82 257L0 257Z" fill="#7700c6"></path><path d="M0 439L82 439L82 463L164 463L164 463L245 463L245 457L327 457L327 493L409 493L409 463L491 463L491 523L573 523L573 481L655 481L655 463L736 463L736 451L818 451L818 433L900 433L900 457L900 281L900 287L818 287L818 323L736 323L736 221L655 221L655 293L573 293L573 287L491 287L491 353L409 353L409 287L327 287L327 323L245 323L245 347L164 347L164 371L82 371L82 305L0 305Z" fill="#6c00b4"></path><path d="M0 481L82 481L82 523L164 523L164 493L245 493L245 523L327 523L327 517L409 517L409 499L491 499L491 553L573 553L573 541L655 541L655 535L736 535L736 517L818 517L818 505L900 505L900 511L900 455L900 431L818 431L818 449L736 449L736 461L655 461L655 479L573 479L573 521L491 521L491 461L409 461L409 491L327 491L327 455L245 455L245 461L164 461L164 461L82 461L82 437L0 437Z" fill="#6100a2"></path><path d="M0 601L82 601L82 601L164 601L164 601L245 601L245 601L327 601L327 601L409 601L409 601L491 601L491 601L573 601L573 601L655 601L655 601L736 601L736 601L818 601L818 601L900 601L900 601L900 509L900 503L818 503L818 515L736 515L736 533L655 533L655 539L573 539L573 551L491 551L491 497L409 497L409 515L327 515L327 521L245 521L245 491L164 491L164 521L82 521L82 479L0 479Z" fill="#560090"></path></svg>